<svg height="512" viewBox="0 0 512 512" width="512" xmlns="http://www.w3.org/2000/svg"><rect fill="#f5871e" height="304" rx="48" width="480" x="16" y="104"/><rect fill="#fabe19" height="304" rx="48" width="448" x="16" y="104"/><rect fill="#f04b37" height="224" rx="8" width="176" x="56" y="144"/><g fill="#f5871e"><rect height="32" rx="16" width="160" x="264" y="272"/><rect height="32" rx="16" width="88" x="264" y="336"/><rect height="32" rx="16" width="56" x="368" y="176"/></g><path d="m116 272h56a60 60 0 0 1 60 60v28a8 8 0 0 1 -8 8h-160a8 8 0 0 1 -8-8v-28a60 60 0 0 1 60-60z" fill="#d7e6f0"/><circle cx="144" cy="288" fill="#f0915a" r="32"/><rect fill="#fab991" height="112" rx="48" width="96" x="96" y="176"/><path d="m88 232h8a8 8 0 0 0 8-8v-16a16 16 0 0 1 16-16h48a16 16 0 0 1 16 16v16a8 8 0 0 0 8 8h8v-40a32 32 0 0 0 -32-32h-48a32 32 0 0 0 -32 32z" fill="#353744"/><path d="m92 216h4a0 0 0 0 1 0 0v24a0 0 0 0 1 0 0h-4a12 12 0 0 1 -12-12 12 12 0 0 1 12-12z" fill="#f0915a"/><path d="m204 216h4a0 0 0 0 1 0 0v24a0 0 0 0 1 0 0h-4a12 12 0 0 1 -12-12 12 12 0 0 1 12-12z" fill="#f0915a" transform="matrix(-1 0 0 -1 400 456)"/><circle cx="304" cy="192" fill="#6478b9" r="48"/><path d="m308 224.667h-8a18.021 18.021 0 0 1 -18-18v-30h-2a6 6 0 0 1 0-12h8a6 6 0 0 1 6 6v36a6.006 6.006 0 0 0 6 6h8a6.006 6.006 0 0 0 6-6v-36a6 6 0 0 1 6-6h8a6 6 0 0 1 0 12h-2v30a18.021 18.021 0 0 1 -18 18z" fill="#d7e6f0"/></svg>