<?xml version="1.0" encoding="iso-8859-1"?>
<!-- Generator: Adobe Illustrator 19.0.0, SVG Export Plug-In . SVG Version: 6.00 Build 0)  -->
<svg version="1.1" id="Capa_1" xmlns="http://www.w3.org/2000/svg" xmlns:xlink="http://www.w3.org/1999/xlink" x="0px" y="0px"
	 viewBox="0 0 512 512" style="enable-background:new 0 0 512 512;" xml:space="preserve">
<path style="fill:#FFC850;" d="M255.235,7.5c-20.641,0-37.373,16.733-37.373,37.373v39.365h74.747V44.874
	C292.61,24.233,275.877,7.5,255.235,7.5z M255.474,56.48c-6.544,0-11.851-5.305-11.851-11.851c0-6.545,5.305-11.851,11.851-11.851
	c6.545,0,11.851,5.305,11.851,11.851C267.325,51.174,262.019,56.48,255.474,56.48z"/>
<path style="fill:#FEA82F;" d="M265.236,8.865c-3.184-0.883-6.535-1.364-10.001-1.364c-20.641,0-37.373,16.733-37.373,37.373v39.365
	h20.001V44.874C237.863,27.699,249.454,13.239,265.236,8.865z"/>
<path style="fill:#FFFFFF;" d="M401.047,101.924h-38.863H149.802h-38.863c-7.463,0-13.57,6.106-13.57,13.57V490.93
	c0,7.463,6.106,13.57,13.57,13.57h290.11c7.463,0,13.57-6.106,13.57-13.57V115.495C414.618,108.032,408.511,101.924,401.047,101.924
	z"/>
<path style="fill:#E4EAF8;" d="M117.37,490.93V115.495c0-7.463,6.106-13.57,13.57-13.57h-20.001c-7.463,0-13.57,6.106-13.57,13.57
	V490.93c0,7.463,6.106,13.57,13.57,13.57h20.001C123.476,504.5,117.37,498.393,117.37,490.93z"/>
<path style="fill:#FFC850;" d="M348.614,187.686H163.372c-7.463,0-13.57,6.106-13.57,13.57V441.62c0,7.463,6.106,13.57,13.57,13.57
	h185.242c7.463,0,13.57-6.106,13.57-13.57V201.256C362.184,193.793,356.078,187.686,348.614,187.686z"/>
<path style="fill:#FEA82F;" d="M166.09,441.62V201.256c0-7.463,6.106-13.57,13.57-13.57h-16.288c-7.463,0-13.57,6.106-13.57,13.57
	V441.62c0,7.463,6.106,13.57,13.57,13.57h16.288C172.197,455.19,166.09,449.083,166.09,441.62z"/>
<path style="fill:#FF9052;" d="M255.474,208.603c-30.364,0-54.977,24.613-54.977,54.977v21.756
	c3.674-3.406,8.902-5.257,14.004-4.575v-2.739c0-2.178,1.859-3.898,4.015-3.734c21.256,1.527,42.888-5.227,59.244-15.912
	c1.527-0.998,3.549-0.75,4.789,0.584c13.983,15.031,13.899,14.449,13.899,16.411v5.379c5.593-0.838,10.555,0.89,14.002,4.095
	v-21.264C310.452,233.216,285.838,208.603,255.474,208.603z"/>
<path style="fill:#FF8031;" d="M215.254,263.58c0-27.86,20.726-50.863,47.599-54.47c-2.415-0.324-4.874-0.507-7.378-0.507
	c-30.364,0-54.977,24.613-54.977,54.977v21.756c3.674-3.406,8.902-5.257,14.004-4.575v-2.739c0-0.846,0.283-1.62,0.752-2.244
	L215.254,263.58L215.254,263.58z"/>
<g>
	<path style="fill:#FFBEAB;" d="M295.722,278.564v30.117c0,0.326-0.017,0.649-0.025,0.974c10.658,1.614,19.004-6.086,19.004-15.544
		C314.701,284.634,306.348,276.971,295.722,278.564z"/>
	<path style="fill:#FFBEAB;" d="M215.23,308.681v-30.105c-9.279-1.239-18.98,5.881-18.98,15.535c0,9.445,8.329,17.159,19.004,15.544
		C215.246,309.329,215.23,309.006,215.23,308.681z"/>
</g>
<g>
	<path style="fill:#C2C7D0;" d="M309.055,282.073c-3.406-2.825-8.091-4.294-13.333-3.509v30.117c0,0.326-0.017,0.649-0.025,0.974
		c5.257,0.796,9.95-0.677,13.358-3.507V282.073z"/>
	<path style="fill:#C2C7D0;" d="M215.23,306.15c-3.503-2.908-5.646-7.249-5.646-12.039c0-4.66,2.264-8.726,5.646-11.55v-3.985
		c-9.279-1.239-18.98,5.882-18.98,15.535c0,9.445,8.329,17.159,19.003,15.544c-0.008-0.325-0.024-0.648-0.024-0.974v-2.531H215.23z"
		/>
</g>
<path style="fill:#E4EAF8;" d="M256.061,348.341c-8.882,0-16.687-2.438-23.071-6.517V363.4l22.972,28.356l22.972-28.356v-22.184
	C272.426,345.704,264.547,348.341,256.061,348.341z"/>
<path style="fill:#C2C7D0;" d="M247.701,347.581c-5.477-1.016-10.418-3.013-14.712-5.757V363.4l14.712,18.16V347.581z"/>
<path style="fill:#FFFFFF;" d="M339.707,385.478l-60.773-23.535l-22.972,28.356l-22.972-28.356l-60.709,23.535
	c0,0-22.477,9.241-22.477,34.865v23.277c0.001,7.462,6.107,13.569,13.57,13.569h185.242c7.463,0,13.57-6.106,13.57-13.57v-23.276
	C362.184,394.72,339.707,385.478,339.707,385.478z"/>
<path style="fill:#ABFFDB;" d="M163.372,457.19h1.142v-43.467c0-17.58,10.58-27.447,17.222-31.911l-9.457,3.666
	c0,0-22.477,9.241-22.477,34.865v23.276C149.802,451.083,155.908,457.19,163.372,457.19z"/>
<path style="fill:#FFFFFF;" d="M282.551,257.502c-1.241-1.334-3.263-1.582-4.789-0.584c-16.356,10.685-37.988,17.439-59.244,15.912
	c-2.156-0.163-4.015,1.557-4.015,3.734v32.844c0,21.109,16.54,40.389,41.559,40.389c22.271,0,40.389-18.119,40.389-40.389v-35.495
	C296.45,271.95,296.534,272.532,282.551,257.502z"/>
<path style="fill:#E4EAF8;" d="M229.214,309.409v-36.494c-3.558,0.189-7.132,0.171-10.697-0.085
	c-2.156-0.163-4.015,1.557-4.015,3.734v32.844c0,21.109,16.54,40.388,41.559,40.388c2.308,0,4.568-0.205,6.771-0.579
	C243.775,345.987,229.214,329.371,229.214,309.409z"/>
<g>
	<path style="fill:#ABFFDB;" d="M283.699,404.87l17.178-34.428l-21.943-8.499l-22.972,28.356l22.397,15.907
		C280.172,407.494,282.706,406.86,283.699,404.87z"/>
	<path style="fill:#ABFFDB;" d="M228.256,404.87l-17.178-34.428l21.943-8.499l22.972,28.356l-22.397,15.907
		C231.783,407.494,229.249,406.86,228.256,404.87z"/>
</g>
<path style="fill:#6DC296;" d="M255.992,390.319v-0.02l-0.014,0.01l-0.014-0.01v0.02l-16.29,11.57l7.7,11.589
	c6.209,0,10.998,0,17.208,0l7.7-11.589L255.992,390.319z"/>
<path style="fill:#5FA77E;" d="M264.129,396.098l-8.138-5.78v-0.02l-0.014,0.01l-0.014-0.01v0.02l-16.29,11.57l7.7,11.59
	c5.991,0,10.645,0,16.304,0l-6.322-9.516c-0.768-1.155-0.479-2.712,0.652-3.515L264.129,396.098z"/>
<path style="fill:#ABFFDB;" d="M247.373,413.477l-5.921,43.713h29.05l-5.921-43.713C258.37,413.477,253.584,413.477,247.373,413.477
	z"/>
<g>
	<path style="fill:#92E0C0;" d="M247.373,413.477l-5.921,43.713h16.304l5.92-43.713
		C257.993,413.477,253.387,413.477,247.373,413.477z"/>
	<path style="fill:#92E0C0;" d="M348.614,81.239H163.372c-7.463,0-13.57,6.106-13.57,13.57v14.232c0,7.463,6.106,13.57,13.57,13.57
		h185.242c7.463,0,13.57-6.106,13.57-13.57V94.809C362.184,87.345,356.078,81.239,348.614,81.239z"/>
</g>
<path style="fill:#6DC296;" d="M348.614,105.609H163.372c-6.964,0-12.744-5.319-13.485-12.095c-0.044,0.427-0.085,0.856-0.085,1.295
	v14.231c0,7.463,6.106,13.57,13.57,13.57h185.242c7.463,0,13.57-6.106,13.57-13.57V94.81c0-0.439-0.041-0.867-0.085-1.295
	C361.358,100.29,355.58,105.609,348.614,105.609z"/>
<path style="fill:#AFB5BC;" d="M286.322,162.691h-61.682c-4.142,0-7.5-3.358-7.5-7.5c0-4.142,3.358-7.5,7.5-7.5h61.682
	c4.142,0,7.5,3.358,7.5,7.5C293.823,159.333,290.465,162.691,286.322,162.691z"/>
<g>
	<path style="fill:#474D54;" d="M169.575,378.486c-0.047,0.018-0.094,0.037-0.141,0.056c-1.108,0.455-27.127,11.501-27.127,41.802
		v23.276c0,11.618,9.453,21.07,21.07,21.07h185.243c11.619,0,21.07-9.453,21.07-21.07v-23.276c0-30.301-26.019-41.346-27.127-41.802
		c-0.047-0.02-0.095-0.039-0.143-0.057l-55.981-21.68v-10.398c8.642-7.107,14.76-17.177,16.786-28.641
		c4.325-0.704,8.363-2.538,11.665-5.376c5.113-4.396,8.046-10.794,8.046-17.55c0-5.261-1.778-10.306-4.978-14.355v-16.904
		c0-34.45-28.028-62.478-62.478-62.478s-62.478,28.028-62.478,62.478v17.354c-3.232,3.994-4.975,8.81-4.975,13.905
		c0,6.757,2.932,13.155,8.045,17.552c3.296,2.834,7.328,4.667,11.648,5.372c2.072,11.957,8.536,22.27,17.774,29.363v9.681
		L169.575,378.486z M279.017,397.468l-2.344-1.665c-0.014-0.01-0.028-0.02-0.042-0.03l-9.804-6.962l7.811-9.643l6.689-8.257
		l9.168,3.55L279.017,397.468z M232.952,397.468l-11.48-23.006l9.144-3.541l14.505,17.904l-9.785,6.948
		c-0.02,0.014-0.04,0.029-0.06,0.044L232.952,397.468z M249.951,403.794l6.032-4.284l6.032,4.284l-1.45,2.183h-9.165
		L249.951,403.794z M157.31,443.62v-23.276c0-19.811,16.676-27.425,17.792-27.912l32.321-12.53l14.129,28.317c0,0,0,0,0,0.001
		c1.453,2.911,4.097,5.034,7.252,5.823c0.894,0.224,1.801,0.333,2.704,0.333c2.192,0,4.353-0.65,6.204-1.895l1.776,2.673
		l-5.845,34.535h-38.078v-20.538c0-4.142-3.358-7.5-7.5-7.5c-4.142,0-7.5,3.358-7.5,7.5v20.538h-17.185
		C160.032,449.689,157.31,446.966,157.31,443.62z M248.858,449.689l4.86-28.711h4.532l4.859,28.711H248.858z M354.69,420.343v23.276
		c0,3.346-2.723,6.069-6.069,6.069h-17.185v-20.538c0-4.142-3.358-7.5-7.5-7.5c-4.142,0-7.5,3.358-7.5,7.5v20.538h-38.111
		l-5.845-34.535l1.776-2.673c1.851,1.246,4.012,1.896,6.204,1.896c0.902,0,1.81-0.11,2.703-0.333c3.156-0.79,5.8-2.912,7.253-5.823
		v-0.001l14.129-28.316l32.359,12.532C337.884,392.86,354.69,400.474,354.69,420.343z M274.682,336.497
		c-4.283,2.955-9.135,4.824-14.226,5.507c-0.026,0.003-0.052,0.007-0.077,0.01c-0.083,0.011-0.165,0.021-0.248,0.032
		c-0.033,0.004-0.065,0.008-0.098,0.012c-0.252,0.03-0.505,0.058-0.758,0.083c-0.053,0.005-0.106,0.01-0.159,0.015
		c-0.064,0.006-0.128,0.012-0.192,0.017c-0.068,0.006-0.135,0.011-0.203,0.017c-0.053,0.004-0.106,0.009-0.159,0.013
		c-0.111,0.008-0.223,0.016-0.335,0.023c-0.052,0.003-0.104,0.006-0.157,0.01c-0.076,0.005-0.153,0.009-0.229,0.013
		c-0.049,0.003-0.099,0.005-0.148,0.008c-0.097,0.005-0.195,0.009-0.292,0.013c-0.025,0.001-0.051,0.002-0.076,0.003
		c-0.123,0.005-0.246,0.009-0.369,0.012c-0.038,0.001-0.077,0.002-0.115,0.003c-0.092,0.002-0.185,0.004-0.278,0.005
		c-0.038,0-0.077,0.001-0.115,0.001c-0.126,0.001-0.253,0.002-0.379,0.002c-21.582,0-33.47-16.129-34.037-31.721
		c0.003-0.124,0.003-0.248,0-0.374l-0.012-0.397c-0.004-0.132-0.01-0.263-0.01-0.395v-28.901c0.145,0.004,0.291,0.008,0.437,0.011
		c0.038,0.001,0.076,0.002,0.115,0.002c0.104,0.002,0.208,0.004,0.312,0.006c0.1,0.002,0.201,0.003,0.301,0.005
		c0.042,0.001,0.085,0.001,0.127,0.002c19.019,0.254,38.971-5.316,55.89-15.646c0.618,0.662,1.203,1.288,1.758,1.881
		c0.125,0.133,0.248,0.265,0.369,0.395c0.098,0.104,0.195,0.208,0.29,0.31c0.084,0.089,0.167,0.178,0.249,0.266
		c0.138,0.147,0.273,0.292,0.407,0.434c0.056,0.06,0.112,0.119,0.167,0.178c0.524,0.56,1.017,1.085,1.479,1.578
		c2.25,2.399,4.048,4.316,5.045,5.44v34.036c0,0.125-0.006,0.249-0.01,0.373l-0.013,0.419c-0.003,0.133-0.002,0.265,0.001,0.397
		c-0.38,10.617-5.815,19.966-13.967,25.711C274.871,336.37,274.776,336.432,274.682,336.497z M305.109,301.016
		c-0.361,0.311-0.747,0.588-1.153,0.831v-14.014c0.497,0.298,0.964,0.647,1.395,1.048c0.038,0.036,0.077,0.071,0.116,0.105
		c1.595,1.536,2.468,3.596,2.468,5.852C307.936,297.22,306.906,299.471,305.109,301.016z M208.005,263.58
		c0-26.179,21.297-47.477,47.477-47.477s47.477,21.298,47.477,47.477v5.604c-0.183-0.337-0.398-0.686-0.649-1.053l-0.001-0.001
		c-0.144-0.211-0.301-0.428-0.47-0.654c-0.003-0.004-0.007-0.009-0.01-0.014c-0.021-0.028-0.042-0.056-0.063-0.083
		c-0.006-0.008-0.011-0.015-0.017-0.022c-0.021-0.028-0.042-0.055-0.063-0.083c-0.002-0.002-0.004-0.005-0.006-0.007
		c-0.069-0.09-0.14-0.181-0.214-0.274c-0.007-0.009-0.015-0.019-0.022-0.028c-0.018-0.023-0.036-0.046-0.055-0.069
		c-0.013-0.017-0.027-0.034-0.04-0.051c-0.014-0.017-0.028-0.035-0.042-0.052c-0.015-0.019-0.03-0.038-0.045-0.057
		c-0.02-0.025-0.04-0.05-0.06-0.074c-0.006-0.008-0.013-0.016-0.02-0.024c-0.102-0.125-0.207-0.252-0.316-0.382
		c-0.014-0.016-0.027-0.032-0.041-0.049c-0.021-0.025-0.043-0.051-0.064-0.076c-0.011-0.013-0.022-0.027-0.034-0.04
		c-0.018-0.022-0.037-0.044-0.055-0.065c-0.02-0.024-0.041-0.048-0.062-0.073c-0.014-0.016-0.027-0.032-0.041-0.048
		c-0.024-0.028-0.048-0.056-0.073-0.085c-0.011-0.013-0.022-0.026-0.034-0.039c-0.031-0.035-0.061-0.071-0.092-0.107
		c-0.006-0.007-0.012-0.013-0.017-0.02c-0.03-0.035-0.061-0.07-0.091-0.105c-0.01-0.012-0.021-0.024-0.031-0.036
		c-0.036-0.042-0.073-0.084-0.111-0.127c-0.012-0.013-0.023-0.027-0.035-0.04c-0.03-0.034-0.06-0.069-0.091-0.104
		c-0.007-0.008-0.014-0.016-0.021-0.024c-0.036-0.041-0.072-0.082-0.108-0.123c-0.005-0.006-0.011-0.012-0.016-0.018
		c-0.037-0.042-0.074-0.084-0.112-0.126c-0.006-0.007-0.013-0.014-0.019-0.022c-0.037-0.041-0.074-0.083-0.111-0.125
		c-0.006-0.007-0.013-0.014-0.019-0.021c-0.125-0.14-0.253-0.283-0.385-0.429c-0.022-0.025-0.045-0.05-0.068-0.075
		c-0.117-0.129-0.236-0.26-0.358-0.394c-0.023-0.025-0.046-0.051-0.069-0.076c-1.063-1.163-2.336-2.52-3.859-4.145
		c-0.776-0.827-1.637-1.746-2.593-2.767c-0.007-0.008-0.014-0.015-0.021-0.023c-0.163-0.174-0.329-0.351-0.497-0.531
		c-0.149-0.159-0.301-0.321-0.454-0.486c-0.077-0.082-0.155-0.165-0.233-0.249c-0.13-0.139-0.262-0.28-0.395-0.423
		c-0.141-0.151-0.284-0.304-0.428-0.458c-0.265-0.283-0.535-0.573-0.812-0.87c-0.104-0.112-0.209-0.224-0.315-0.338
		c-0.023-0.025-0.047-0.05-0.07-0.075c-0.318-0.342-0.644-0.692-0.978-1.051l-0.001-0.001c-1.169-1.255-2.563-2.191-4.067-2.792
		c-0.527-0.21-1.067-0.379-1.616-0.507c-0.157-0.036-0.314-0.069-0.472-0.099c-0.711-0.134-1.435-0.198-2.159-0.193
		c-2.094,0.016-4.2,0.619-6.066,1.838c-9.187,6.001-19.503,10.324-30.037,12.722c-0.146,0.033-0.293,0.066-0.439,0.099
		c-0.293,0.065-0.586,0.129-0.879,0.191c-0.293,0.062-0.586,0.123-0.879,0.182c-0.293,0.059-0.587,0.117-0.88,0.173
		c-0.147,0.028-0.294,0.056-0.44,0.083c-0.294,0.055-0.587,0.108-0.881,0.16c-0.441,0.077-0.881,0.151-1.322,0.222
		c-1.176,0.188-2.352,0.353-3.528,0.492c-0.588,0.07-1.175,0.133-1.763,0.191c-0.294,0.029-0.587,0.056-0.881,0.082
		c-0.147,0.013-0.293,0.025-0.44,0.037c-0.293,0.024-0.587,0.047-0.88,0.067c-0.293,0.021-0.586,0.041-0.879,0.058
		c-0.293,0.018-0.586,0.034-0.878,0.049c-3.218,0.161-6.416,0.132-9.569-0.095c-1.262-0.095-2.521,0.027-3.724,0.347
		c-1.759,0.468-3.398,1.361-4.756,2.619c-0.286,0.265-0.556,0.543-0.81,0.834c-0.003,0.004-0.007,0.008-0.01,0.012
		c-0.06,0.068-0.119,0.137-0.177,0.207c-0.006,0.007-0.011,0.014-0.017,0.021c-0.055,0.067-0.11,0.134-0.163,0.202
		c-0.009,0.011-0.017,0.022-0.026,0.033c-0.05,0.064-0.099,0.128-0.148,0.192c-0.012,0.016-0.023,0.031-0.035,0.047
		c-0.045,0.06-0.089,0.121-0.132,0.182c-0.015,0.021-0.029,0.041-0.043,0.062c-0.04,0.057-0.079,0.114-0.118,0.171
		c-0.016,0.024-0.032,0.049-0.048,0.073c-0.036,0.055-0.072,0.11-0.107,0.165c-0.017,0.026-0.033,0.052-0.05,0.079
		c-0.033,0.053-0.067,0.107-0.099,0.161c-0.018,0.03-0.036,0.061-0.054,0.091c-0.03,0.05-0.059,0.101-0.088,0.152
		c-0.019,0.033-0.038,0.067-0.056,0.1c-0.027,0.048-0.054,0.097-0.08,0.146c-0.019,0.036-0.038,0.072-0.057,0.107
		c-0.025,0.048-0.05,0.096-0.074,0.144c-0.018,0.037-0.037,0.073-0.055,0.11c-0.024,0.049-0.048,0.097-0.071,0.146
		c-0.017,0.036-0.034,0.073-0.051,0.109c-0.012,0.027-0.025,0.054-0.038,0.081v-8.365H208.005z M203.029,294.839
		c0-2.505,1.392-4.322,2.428-5.327c0.049-0.043,0.098-0.087,0.146-0.131c0.435-0.404,0.907-0.767,1.405-1.086v13.555
		c-0.406-0.243-0.792-0.52-1.153-0.831C204.058,299.473,203.029,297.221,203.029,294.839z M256.632,357.295
		c0.06-0.001,0.12-0.002,0.18-0.003c0.13-0.002,0.26-0.004,0.39-0.007c0.066-0.002,0.132-0.003,0.198-0.005
		c0.131-0.004,0.262-0.008,0.392-0.012c0.059-0.002,0.117-0.004,0.176-0.006c0.163-0.006,0.325-0.014,0.488-0.022
		c0.036-0.002,0.072-0.003,0.109-0.005c0.171-0.009,0.342-0.019,0.513-0.03c0.072-0.004,0.143-0.01,0.215-0.014
		c0.113-0.007,0.226-0.015,0.339-0.023c0.08-0.006,0.159-0.012,0.239-0.019c0.107-0.008,0.214-0.017,0.321-0.026
		c0.08-0.007,0.161-0.014,0.241-0.021c0.117-0.011,0.234-0.022,0.35-0.033c0.075-0.008,0.15-0.015,0.225-0.022
		c0.162-0.017,0.325-0.034,0.487-0.053c0.086-0.01,0.172-0.02,0.258-0.031c0.095-0.011,0.19-0.023,0.285-0.034
		c0.092-0.012,0.184-0.023,0.276-0.036c0.09-0.012,0.181-0.024,0.271-0.036c0.09-0.012,0.18-0.025,0.27-0.037
		c0.095-0.014,0.19-0.028,0.285-0.042c0.087-0.013,0.175-0.026,0.262-0.039c0.163-0.025,0.326-0.051,0.489-0.078
		c0.099-0.016,0.197-0.034,0.296-0.051c0.078-0.013,0.157-0.027,0.235-0.041c0.099-0.018,0.198-0.036,0.297-0.054
		c0.081-0.015,0.161-0.03,0.242-0.045c0.098-0.018,0.195-0.037,0.292-0.056c0.077-0.015,0.153-0.031,0.23-0.046
		c0.102-0.02,0.203-0.041,0.305-0.062c0.061-0.013,0.122-0.026,0.182-0.039c0.214-0.045,0.428-0.092,0.641-0.14
		c0.056-0.013,0.112-0.025,0.168-0.038c0.109-0.025,0.218-0.051,0.327-0.077c0.064-0.015,0.127-0.03,0.191-0.045
		c0.109-0.026,0.217-0.053,0.325-0.08c0.061-0.015,0.122-0.031,0.183-0.046c0.115-0.029,0.229-0.058,0.343-0.088
		c0.042-0.011,0.085-0.022,0.127-0.034c0.42-0.111,0.838-0.227,1.254-0.349c0.022-0.007,0.045-0.013,0.067-0.02
		c0.133-0.04,0.266-0.08,0.399-0.12c0.029-0.009,0.058-0.018,0.087-0.026c0.138-0.042,0.277-0.085,0.414-0.129
		c0.014-0.004,0.027-0.009,0.041-0.013c0.301-0.095,0.601-0.194,0.899-0.295v4.518l-14.852,18.333l-0.604,0.745l-15.488-19.117
		v-3.629c4.546,1.134,9.68,1.68,15.571,1.68C256.255,357.298,256.444,357.297,256.632,357.295z"/>
	<path style="fill:#474D54;" d="M255.48,25.279c-10.67,0-19.351,8.681-19.351,19.351s8.681,19.351,19.351,19.351
		c10.671,0,19.351-8.682,19.351-19.351S266.151,25.279,255.48,25.279z M255.48,48.98c-2.398,0-4.35-1.952-4.35-4.35
		c0-2.398,1.951-4.35,4.35-4.35c2.399,0,4.35,1.951,4.35,4.35C259.831,47.029,257.88,48.98,255.48,48.98z"/>
	<path style="fill:#474D54;" d="M401.054,94.424h-31.367c-0.206-11.442-9.577-20.686-21.066-20.686h-48.504V44.875
		C300.117,20.13,279.986,0,255.242,0c-24.743,0-44.874,20.13-44.874,44.875v28.864h-46.99c-11.49,0-20.86,9.245-21.066,20.686
		h-31.367c-11.619,0-21.07,9.453-21.07,21.07V490.93c0,11.619,9.453,21.07,21.07,21.07h127.553c4.142,0,7.5-3.358,7.5-7.5
		s-3.358-7.5-7.5-7.5H110.946c-3.347,0-6.069-2.723-6.069-6.069V115.494c0-3.346,2.723-6.069,6.069-6.069h31.366
		c0.001,0.03,0.002,0.06,0.002,0.09c0.001,0.038,0.002,0.075,0.003,0.113c0.002,0.055,0.003,0.11,0.005,0.165
		c0.001,0.033,0.002,0.067,0.004,0.1c0.002,0.055,0.005,0.11,0.007,0.165c0.002,0.036,0.003,0.072,0.005,0.108
		c0.003,0.053,0.006,0.107,0.009,0.16c0.002,0.035,0.004,0.069,0.006,0.104c0.003,0.054,0.007,0.108,0.011,0.161
		c0.003,0.036,0.005,0.071,0.008,0.107c0.004,0.054,0.009,0.108,0.013,0.162c0.003,0.034,0.006,0.067,0.009,0.101
		c0.005,0.056,0.011,0.113,0.016,0.169c0.003,0.031,0.006,0.062,0.009,0.092c0.006,0.057,0.012,0.113,0.018,0.17
		c0.004,0.032,0.007,0.064,0.011,0.096c0.007,0.06,0.014,0.119,0.022,0.179c0.003,0.025,0.006,0.051,0.01,0.076
		c0.008,0.061,0.016,0.122,0.025,0.183c0.004,0.028,0.008,0.056,0.011,0.083c0.008,0.06,0.017,0.12,0.026,0.179
		c0.004,0.026,0.008,0.052,0.012,0.078c0.01,0.063,0.02,0.126,0.03,0.189c0.004,0.023,0.007,0.046,0.011,0.069
		c0.01,0.062,0.021,0.124,0.032,0.186c0.004,0.025,0.009,0.051,0.013,0.076c0.011,0.063,0.023,0.126,0.035,0.19
		c0.004,0.021,0.008,0.042,0.012,0.063c0.013,0.066,0.026,0.132,0.039,0.198c0.004,0.02,0.008,0.039,0.012,0.059
		c0.014,0.067,0.028,0.133,0.042,0.2c0.004,0.018,0.008,0.036,0.012,0.054c0.015,0.067,0.03,0.133,0.045,0.199
		c0.004,0.019,0.009,0.039,0.013,0.058c0.016,0.07,0.033,0.14,0.05,0.209c0.003,0.013,0.006,0.025,0.009,0.038
		c0.018,0.074,0.037,0.149,0.056,0.223c0.002,0.009,0.005,0.019,0.007,0.028c0.019,0.074,0.039,0.147,0.058,0.221
		c0.003,0.01,0.005,0.021,0.008,0.031c0.021,0.079,0.043,0.158,0.066,0.236c0.001,0.003,0.002,0.007,0.003,0.01
		c0.022,0.079,0.045,0.157,0.068,0.235c0.001,0.005,0.003,0.01,0.004,0.015c0.024,0.082,0.049,0.163,0.074,0.244
		c0,0.001,0,0.001,0.001,0.002c0.024,0.076,0.048,0.152,0.073,0.228c0.002,0.007,0.005,0.015,0.007,0.022
		c0.025,0.075,0.049,0.15,0.075,0.225c0.002,0.006,0.004,0.013,0.006,0.019c0.026,0.078,0.053,0.156,0.081,0.233
		c0.001,0.003,0.002,0.006,0.003,0.01c0.687,1.946,1.652,3.761,2.847,5.399l0,0c0.049,0.068,0.099,0.135,0.149,0.202
		c0.002,0.002,0.004,0.005,0.005,0.007c0.1,0.133,0.201,0.265,0.303,0.395c0.001,0.002,0.003,0.004,0.004,0.005
		c0.05,0.063,0.1,0.126,0.151,0.189c0.006,0.008,0.013,0.015,0.019,0.023c0.047,0.058,0.094,0.116,0.142,0.174
		c0.005,0.006,0.011,0.013,0.016,0.019c0.047,0.057,0.095,0.115,0.143,0.172c0.009,0.011,0.018,0.021,0.028,0.032
		c0.045,0.053,0.091,0.107,0.137,0.16c0.009,0.01,0.017,0.02,0.026,0.03c0.046,0.053,0.093,0.106,0.14,0.159
		c0.01,0.011,0.02,0.022,0.03,0.033c0.045,0.051,0.091,0.102,0.137,0.153c0.013,0.014,0.026,0.029,0.04,0.043
		c0.042,0.046,0.085,0.093,0.127,0.138c0.017,0.019,0.035,0.037,0.052,0.056c0.04,0.043,0.081,0.086,0.121,0.128
		c0.016,0.017,0.032,0.033,0.048,0.05c0.043,0.045,0.086,0.089,0.129,0.133c0.015,0.015,0.03,0.031,0.045,0.046
		c0.043,0.044,0.086,0.088,0.13,0.131c0.019,0.019,0.037,0.037,0.056,0.056c0.039,0.039,0.079,0.078,0.119,0.117
		c0.023,0.022,0.046,0.045,0.069,0.067c0.037,0.036,0.075,0.072,0.112,0.108c0.023,0.022,0.046,0.043,0.069,0.065
		c0.038,0.036,0.075,0.072,0.113,0.107c0.024,0.022,0.048,0.045,0.072,0.067c0.037,0.035,0.075,0.069,0.112,0.104
		c0.025,0.023,0.051,0.046,0.076,0.069c0.036,0.033,0.073,0.066,0.11,0.099c0.026,0.023,0.053,0.047,0.08,0.07
		c0.036,0.032,0.073,0.064,0.11,0.096c0.028,0.024,0.055,0.048,0.083,0.072c0.034,0.03,0.069,0.059,0.103,0.088
		c0.031,0.026,0.061,0.052,0.092,0.077c0.034,0.029,0.069,0.058,0.104,0.086c0.029,0.024,0.057,0.047,0.086,0.071
		c0.037,0.03,0.073,0.06,0.11,0.09c0.03,0.024,0.06,0.048,0.089,0.072c0.033,0.027,0.067,0.053,0.1,0.08
		c0.034,0.027,0.069,0.054,0.104,0.082c0.031,0.024,0.063,0.049,0.094,0.073c0.035,0.027,0.069,0.053,0.104,0.08
		c0.033,0.025,0.067,0.051,0.1,0.076c0.032,0.024,0.063,0.047,0.095,0.071c0.035,0.026,0.07,0.052,0.105,0.078
		c0.035,0.026,0.071,0.052,0.106,0.077c0.032,0.023,0.065,0.047,0.097,0.07c0.034,0.024,0.068,0.049,0.102,0.073
		c0.035,0.024,0.07,0.049,0.104,0.073c0.036,0.025,0.073,0.051,0.109,0.076c0.03,0.021,0.06,0.042,0.091,0.062
		c0.041,0.028,0.082,0.055,0.123,0.083c0.028,0.019,0.057,0.038,0.085,0.057c0.042,0.028,0.084,0.055,0.125,0.083
		c0.028,0.018,0.055,0.036,0.083,0.054c0.043,0.028,0.086,0.056,0.129,0.083c0.029,0.018,0.057,0.036,0.086,0.054
		c0.042,0.027,0.084,0.053,0.126,0.079c0.029,0.018,0.058,0.036,0.087,0.054c0.045,0.027,0.089,0.055,0.134,0.082
		c0.025,0.015,0.05,0.03,0.075,0.045c0.048,0.029,0.096,0.057,0.144,0.085c0.023,0.014,0.047,0.027,0.07,0.041
		c0.05,0.029,0.101,0.058,0.151,0.087c0.022,0.012,0.044,0.025,0.066,0.038c0.052,0.029,0.103,0.058,0.155,0.087
		c0.021,0.012,0.043,0.024,0.064,0.036c0.051,0.028,0.102,0.056,0.154,0.084c0.024,0.013,0.049,0.026,0.073,0.039
		c0.052,0.028,0.104,0.055,0.156,0.083c0.019,0.01,0.039,0.02,0.058,0.03c0.055,0.029,0.11,0.057,0.166,0.085
		c0.021,0.01,0.042,0.021,0.062,0.031c0.056,0.028,0.112,0.056,0.169,0.084c0.016,0.008,0.033,0.016,0.049,0.024
		c0.06,0.029,0.12,0.058,0.18,0.087c0.016,0.008,0.033,0.015,0.049,0.023c0.062,0.03,0.124,0.059,0.187,0.088
		c0.011,0.005,0.022,0.01,0.033,0.015c0.065,0.03,0.13,0.06,0.196,0.089c0.013,0.006,0.026,0.012,0.039,0.018
		c0.064,0.028,0.128,0.057,0.192,0.084c0.014,0.006,0.028,0.012,0.041,0.018c0.064,0.028,0.129,0.055,0.194,0.083
		c0.012,0.005,0.025,0.01,0.037,0.015c0.067,0.028,0.134,0.055,0.201,0.083c0.011,0.004,0.021,0.009,0.032,0.013
		c0.067,0.027,0.134,0.054,0.202,0.08c0.012,0.005,0.025,0.009,0.037,0.014c0.069,0.027,0.139,0.054,0.209,0.08
		c0.005,0.002,0.01,0.004,0.015,0.006c0.076,0.028,0.151,0.056,0.227,0.084c0.002,0.001,0.003,0.001,0.005,0.002
		c0.078,0.028,0.155,0.056,0.233,0.083c0.004,0.001,0.008,0.003,0.012,0.004c0.077,0.027,0.154,0.053,0.231,0.079
		c0.002,0.001,0.005,0.002,0.007,0.002c0.079,0.027,0.158,0.052,0.237,0.078c0.001,0,0.001,0,0.002,0
		c2.03,0.652,4.192,1.005,6.436,1.005h185.252c2.69,0,5.264-0.507,7.632-1.43c0.003-0.001,0.007-0.003,0.01-0.004
		c0.078-0.031,0.155-0.061,0.233-0.093l0,0c0.077-0.031,0.154-0.063,0.231-0.095c0.002-0.001,0.004-0.002,0.006-0.003
		c0.074-0.031,0.148-0.063,0.222-0.094c0.005-0.002,0.01-0.004,0.015-0.006c0.073-0.031,0.145-0.063,0.217-0.096
		c0.005-0.002,0.01-0.004,0.015-0.007c0.073-0.032,0.145-0.065,0.218-0.099l0.012-0.005c0.072-0.033,0.143-0.066,0.214-0.1
		c0.006-0.003,0.012-0.005,0.017-0.008c0.071-0.034,0.141-0.068,0.212-0.103c0.005-0.002,0.01-0.005,0.015-0.008
		c0.068-0.034,0.137-0.068,0.205-0.102c0.008-0.004,0.017-0.009,0.025-0.013c0.067-0.034,0.133-0.068,0.199-0.102
		c0.009-0.005,0.018-0.01,0.028-0.014c0.062-0.032,0.124-0.065,0.185-0.098c0.015-0.008,0.029-0.015,0.043-0.023
		c0.062-0.034,0.125-0.068,0.187-0.102l0.029-0.016c0.063-0.035,0.125-0.07,0.188-0.105c0.012-0.007,0.024-0.013,0.035-0.02
		c0.06-0.035,0.121-0.069,0.181-0.104c0.013-0.008,0.026-0.015,0.039-0.023c0.059-0.034,0.118-0.069,0.176-0.104
		c0.014-0.009,0.029-0.017,0.043-0.026c0.055-0.033,0.11-0.067,0.165-0.1c0.019-0.011,0.037-0.023,0.056-0.034
		c0.053-0.033,0.106-0.066,0.159-0.1c0.018-0.011,0.036-0.023,0.054-0.034c0.052-0.033,0.104-0.066,0.156-0.1
		c0.019-0.012,0.039-0.025,0.058-0.038c0.053-0.034,0.105-0.069,0.157-0.104c0.016-0.01,0.032-0.021,0.047-0.031
		c0.054-0.036,0.107-0.072,0.16-0.108c0.017-0.012,0.034-0.024,0.052-0.036c0.049-0.034,0.099-0.068,0.148-0.103
		c0.022-0.016,0.045-0.031,0.067-0.047c0.046-0.032,0.092-0.065,0.137-0.098c0.022-0.015,0.043-0.031,0.065-0.047
		c0.047-0.034,0.094-0.068,0.141-0.103c0.021-0.015,0.042-0.031,0.062-0.046c0.046-0.034,0.092-0.069,0.138-0.103
		c0.021-0.016,0.042-0.032,0.063-0.048c0.046-0.035,0.091-0.069,0.136-0.104c0.022-0.017,0.043-0.033,0.065-0.05
		c0.044-0.034,0.087-0.068,0.131-0.103c0.024-0.019,0.047-0.038,0.071-0.056c0.042-0.033,0.083-0.067,0.125-0.1
		c0.023-0.019,0.046-0.037,0.069-0.056c0.043-0.035,0.086-0.07,0.128-0.106c0.021-0.017,0.041-0.034,0.062-0.052
		c0.043-0.036,0.086-0.073,0.129-0.109c0.023-0.019,0.045-0.039,0.068-0.058c0.039-0.033,0.078-0.067,0.117-0.101
		c0.027-0.024,0.054-0.047,0.081-0.071c0.035-0.031,0.071-0.062,0.106-0.093c0.026-0.023,0.053-0.047,0.079-0.071
		c0.038-0.034,0.076-0.068,0.113-0.102c0.023-0.021,0.045-0.042,0.068-0.063c0.038-0.035,0.076-0.07,0.114-0.105
		c0.026-0.024,0.051-0.048,0.076-0.072c0.035-0.033,0.07-0.066,0.105-0.1c0.025-0.024,0.05-0.049,0.076-0.073
		c0.035-0.034,0.07-0.068,0.105-0.102c0.027-0.026,0.053-0.052,0.079-0.079c0.032-0.032,0.064-0.063,0.096-0.095
		c0.028-0.028,0.056-0.056,0.084-0.085c0.031-0.031,0.062-0.063,0.093-0.095c0.028-0.029,0.056-0.058,0.084-0.087
		c0.03-0.031,0.06-0.063,0.09-0.094c0.027-0.029,0.054-0.057,0.081-0.086c0.031-0.033,0.062-0.066,0.093-0.099
		c0.027-0.029,0.054-0.058,0.08-0.087c0.029-0.031,0.058-0.063,0.086-0.094c0.034-0.037,0.067-0.075,0.101-0.112
		c0.021-0.023,0.042-0.047,0.062-0.07c0.035-0.04,0.07-0.079,0.104-0.119c0.021-0.025,0.043-0.049,0.064-0.074
		c0.03-0.035,0.06-0.07,0.09-0.105c0.025-0.029,0.05-0.058,0.075-0.088c0.029-0.034,0.058-0.069,0.087-0.104
		c0.025-0.03,0.05-0.06,0.075-0.09c0.032-0.039,0.063-0.077,0.094-0.116c0.02-0.025,0.041-0.05,0.061-0.075
		c0.035-0.043,0.069-0.086,0.103-0.129c0.018-0.023,0.036-0.046,0.054-0.068c0.035-0.045,0.07-0.09,0.104-0.135
		c0.016-0.021,0.033-0.042,0.049-0.063c0.036-0.048,0.073-0.095,0.109-0.143c0.014-0.019,0.029-0.038,0.043-0.058
		c0.037-0.049,0.073-0.098,0.109-0.147c0.013-0.018,0.027-0.037,0.04-0.055c0.041-0.056,0.081-0.112,0.121-0.168
		c0.008-0.011,0.017-0.023,0.025-0.035c0.043-0.06,0.085-0.12,0.127-0.18c0.006-0.009,0.012-0.017,0.018-0.026
		c0.042-0.06,0.083-0.12,0.124-0.18c0.007-0.01,0.013-0.019,0.02-0.029c0.044-0.065,0.087-0.13,0.131-0.196
		c0.003-0.004,0.006-0.009,0.009-0.013c0.091-0.138,0.18-0.277,0.267-0.417c0.002-0.004,0.005-0.007,0.007-0.011
		c0.718-1.149,1.328-2.372,1.817-3.654c0-0.001,0.001-0.002,0.001-0.003c0.06-0.159,0.119-0.319,0.176-0.479
		c0.002-0.005,0.003-0.01,0.005-0.014c0.027-0.076,0.053-0.153,0.079-0.229c0.001-0.004,0.003-0.008,0.004-0.013
		c0.054-0.159,0.106-0.319,0.156-0.48c0.001-0.003,0.002-0.005,0.002-0.008c0.024-0.077,0.048-0.155,0.071-0.233
		c0.004-0.015,0.009-0.03,0.013-0.045c0.02-0.068,0.04-0.136,0.06-0.205c0.004-0.014,0.008-0.027,0.011-0.041
		c0.019-0.069,0.039-0.138,0.057-0.207c0.005-0.017,0.009-0.033,0.013-0.05c0.018-0.068,0.037-0.137,0.054-0.205
		c0.003-0.012,0.006-0.024,0.009-0.036c0.018-0.07,0.036-0.141,0.053-0.211c0.005-0.019,0.009-0.038,0.014-0.057
		c0.016-0.065,0.031-0.13,0.046-0.195c0.005-0.022,0.01-0.044,0.015-0.067c0.014-0.062,0.028-0.124,0.042-0.186
		c0.005-0.023,0.01-0.047,0.015-0.07c0.014-0.063,0.027-0.126,0.04-0.189c0.004-0.02,0.008-0.04,0.012-0.059
		c0.013-0.066,0.027-0.132,0.039-0.198c0.004-0.021,0.008-0.042,0.012-0.063c0.012-0.063,0.024-0.125,0.035-0.188
		c0.005-0.029,0.01-0.057,0.015-0.085c0.01-0.057,0.02-0.115,0.03-0.173c0.005-0.027,0.009-0.055,0.013-0.082
		c0.01-0.06,0.019-0.12,0.029-0.18c0.004-0.026,0.008-0.052,0.012-0.078c0.009-0.059,0.018-0.119,0.026-0.178
		c0.004-0.031,0.009-0.062,0.013-0.093c0.008-0.057,0.015-0.113,0.023-0.17c0.004-0.03,0.007-0.059,0.011-0.089
		c0.007-0.057,0.014-0.115,0.021-0.172c0.004-0.032,0.007-0.064,0.011-0.096c0.006-0.057,0.013-0.113,0.018-0.17
		c0.003-0.031,0.006-0.062,0.009-0.092c0.006-0.056,0.011-0.112,0.016-0.169c0.003-0.034,0.006-0.067,0.009-0.101
		c0.005-0.054,0.009-0.108,0.013-0.162c0.003-0.036,0.005-0.071,0.008-0.107c0.004-0.054,0.008-0.108,0.011-0.161
		c0.002-0.035,0.004-0.069,0.006-0.104c0.003-0.053,0.006-0.107,0.009-0.16c0.002-0.036,0.004-0.072,0.005-0.108
		c0.003-0.055,0.005-0.11,0.007-0.165c0.001-0.034,0.003-0.067,0.004-0.1c0.002-0.055,0.004-0.11,0.005-0.165
		c0.001-0.038,0.002-0.075,0.003-0.113c0.001-0.03,0.002-0.06,0.002-0.09h31.367c3.346,0,6.069,2.723,6.069,6.069v375.435
		c0,3.347-2.723,6.069-6.069,6.069H273.501c-4.142,0-7.5,3.358-7.5,7.5s3.358,7.5,7.5,7.5h127.554c11.619,0,21.07-9.453,21.07-21.07
		V115.494C422.125,103.876,412.673,94.424,401.054,94.424z M225.37,44.875c0-16.472,13.401-29.874,29.873-29.874
		c16.472,0,29.874,13.401,29.874,29.874v28.864H225.37V44.875z M157.31,94.809c0-3.347,2.723-6.069,6.069-6.069h185.242
		c3.347,0,6.069,2.723,6.069,6.069v14.231c0,3.346-2.723,6.069-6.069,6.069H163.379c-3.346,0-6.069-2.723-6.069-6.069V94.809z"/>
</g>
<g>
</g>
<g>
</g>
<g>
</g>
<g>
</g>
<g>
</g>
<g>
</g>
<g>
</g>
<g>
</g>
<g>
</g>
<g>
</g>
<g>
</g>
<g>
</g>
<g>
</g>
<g>
</g>
<g>
</g>
</svg>
