<?xml version="1.0" encoding="iso-8859-1"?>
<!-- Generator: Adobe Illustrator 19.0.0, SVG Export Plug-In . SVG Version: 6.00 Build 0)  -->
<svg version="1.1" id="Capa_1" xmlns="http://www.w3.org/2000/svg" xmlns:xlink="http://www.w3.org/1999/xlink" x="0px" y="0px"
	 viewBox="0 0 475.951 475.951" style="enable-background:new 0 0 475.951 475.951;" xml:space="preserve">
<path style="fill:#1185E0;" d="M183.38,215.249c31.347,0,60.082,10.449,84.114,30.302l20.376-24.033
	c-13.061-10.971-27.167-19.331-42.318-25.6c27.69-19.331,45.975-51.722,45.975-88.294C291.527,48.065,243.461,0,183.902,0
	S75.755,48.065,75.755,107.624c0,36.571,18.286,68.963,45.976,88.294c-60.082,24.555-102.4,83.069-102.4,152.033v77.845
	c0,8.882,6.792,15.673,15.673,15.673h249.731v-31.347H50.678v-62.171C50.678,274.808,110.237,215.249,183.38,215.249z
	 M107.102,107.624c0-42.318,33.959-76.278,76.278-76.278s76.278,33.959,76.278,76.278s-33.959,76.278-76.278,76.278
	S107.102,149.943,107.102,107.624z"/>
<g>
	<path style="fill:#4DCFE0;" d="M340.637,475.951c-2.09,0-4.18-0.522-6.269-1.567l-13.061-5.747
		c-55.902-24.555-92.473-79.935-92.473-140.539v-75.233c0-5.747,3.135-10.971,8.359-13.584l96.653-53.29
		c4.702-2.612,10.449-2.612,15.151,0l99.265,53.29c5.224,2.612,8.359,7.837,8.359,13.584v74.188
		c0,62.171-37.094,117.551-94.041,141.584l0,0l-15.151,6.269C344.816,475.429,342.727,475.951,340.637,475.951z M260.18,262.269
		v65.829c0,48.588,28.735,92.473,73.665,112.327l6.792,3.135l8.882-3.657c45.453-18.808,75.233-63.216,75.233-112.327v-65.306
		l-83.592-44.931L260.18,262.269z"/>
	<path style="fill:#4DCFE0;" d="M327.053,374.596c-4.702,0-8.882-2.09-12.016-5.747l-26.122-30.825
		c-5.747-6.792-4.702-16.718,1.567-21.943c6.269-5.225,16.718-4.702,21.943,1.567l16.196,18.808l48.588-39.706
		c6.792-5.224,16.718-4.702,21.943,2.09c5.224,6.792,4.702,16.718-2.09,21.943l-60.082,50.155
		C333.845,373.551,330.71,374.596,327.053,374.596z"/>
</g>
<g>
</g>
<g>
</g>
<g>
</g>
<g>
</g>
<g>
</g>
<g>
</g>
<g>
</g>
<g>
</g>
<g>
</g>
<g>
</g>
<g>
</g>
<g>
</g>
<g>
</g>
<g>
</g>
<g>
</g>
</svg>
