<svg id="Layer_35" enable-background="new 0 0 64 64" height="512" viewBox="0 0 64 64" width="512" xmlns="http://www.w3.org/2000/svg" xmlns:xlink="http://www.w3.org/1999/xlink"><linearGradient id="SVGID_1_" gradientUnits="userSpaceOnUse" x1="32" x2="32" y1="63" y2="1"><stop offset="0" stop-color="#9f2fff"/><stop offset="1" stop-color="#0bb1d3"/></linearGradient><path d="m6 63h25 2 22v-8.051c1.692-.245 3-1.691 3-3.449v-1.5c0-6.735-4.462-12.445-10.585-14.335 2.158-1.434 3.585-3.885 3.585-6.665 0-2.39-1.059-4.533-2.726-6h10.726c2.206 0 4-1.794 4-4s-1.794-4-4-4h-.184c.112-.314.184-.648.184-1 0-1.654-1.346-3-3-3h-8c-1.654 0-3 1.346-3 3 0 .352.072.686.184 1h-8.184v-9c0-2.757-2.243-5-5-5h-26c-2.757 0-5 2.243-5 5v52c0 2.757 2.243 5 5 5zm0-2c-1.654 0-3-1.346-3-3v-3h28v6zm25-46h-3.236l-8 4 8 4h3.236v18.038c-1.687 2.253-2.752 4.987-2.949 7.962h-21.051v-38h24zm-6.764 4 2.764-1.382v2.764zm8.764 4h4.726c-1.667 1.467-2.726 3.61-2.726 6 0 2.78 1.427 5.231 3.585 6.665-2.098.647-3.99 1.754-5.585 3.186zm0 38v-6h2v4h16v-4h2v6zm5.5-13h-1.5v-2h12v2h-1.5c-1.93 0-3.5 1.57-3.5 3.5s1.57 3.5 3.5 3.5h1.5v2h-12v-2h1.5c1.93 0 3.5-1.57 3.5-3.5s-1.57-3.5-3.5-3.5zm17.5 2v1.5c0 .827-.673 1.5-1.5 1.5h-7c-.827 0-1.5-.673-1.5-1.5s.673-1.5 1.5-1.5h6.5v-2h-3v-4h-16v4h-3v2h6.5c.827 0 1.5.673 1.5 1.5s-.673 1.5-1.5 1.5h-6.5-.5c-.827 0-1.5-.673-1.5-1.5v-1.5c0-7.168 5.832-13 13-13s13 5.832 13 13zm-7-21c0 3.309-2.691 6-6 6s-6-2.691-6-6 2.691-6 6-6 6 2.691 6 6zm-20-8v-4h19 5v4zm32-2c0 1.103-.897 2-2 2h-4v-4h1 3c1.103 0 2 .897 2 2zm-14-5c0-.551.448-1 1-1h8c.552 0 1 .449 1 1s-.448 1-1 1h-8c-.552 0-1-.449-1-1zm-34-11h12v1c0 .551-.448 1-1 1h-10c-.552 0-1-.449-1-1zm-7 0h5v1c0 1.654 1.346 3 3 3h10c1.654 0 3-1.346 3-3v-1h5c1.654 0 3 1.346 3 3v9h-2v-4c0-1.103-.897-2-2-2h-24c-1.103 0-2 .897-2 2v38c0 1.103.897 2 2 2h21v.5c0 .539.133 1.044.351 1.5h-25.351v-47c0-1.654 1.346-3 3-3zm18 54v2h-10v-2zm-5-44h-10v10h10zm-2 8h-6v-6h6zm-5 18h14c1.654 0 3-1.346 3-3v-8c0-1.654-1.346-3-3-3h-14c-1.654 0-3 1.346-3 3v8c0 1.654 1.346 3 3 3zm-1-11c0-.551.448-1 1-1h14c.552 0 1 .449 1 1v8c0 .551-.448 1-1 1h-14c-.552 0-1-.449-1-1zm4-.618v9.236l9.236-4.618zm2 3.236 2.764 1.382-2.764 1.382zm-6 12.382h-2v-2h2zm2-2h14v2h-14zm14 6h-18v-2h18z" fill="url(#SVGID_1_)"/></svg>